<svg width="512" height="512" viewBox="0 0 512 512" fill="none" xmlns="http://www.w3.org/2000/svg">
<g clip-path="url(#clip0_176_243765)">
<path d="M504 255.969C504 119.009 392.941 8 255.992 8C119.044 8 8 119.025 8 256C8 301.179 20.0846 343.513 41.1897 380C41.4554 380.469 41.7368 380.922 42.0182 381.376C42.8937 382.861 43.7848 384.346 44.6915 385.831C45.1605 386.597 45.6295 387.347 46.1142 388.098C46.974 389.474 47.8651 390.834 48.7562 392.178C49.1939 392.835 49.616 393.507 50.0694 394.163C51.3513 396.055 52.6489 397.947 53.9621 399.807C54.3686 400.37 54.7907 400.932 55.1972 401.495C56.1977 402.871 57.1982 404.231 58.2144 405.575C58.7616 406.295 59.2931 406.998 59.8403 407.701C60.8408 408.983 61.8413 410.265 62.8575 411.532C63.3421 412.141 63.8268 412.751 64.327 413.345C65.7653 415.096 67.2348 416.847 68.7357 418.551C69.2203 419.113 69.7206 419.645 70.2052 420.208C71.2995 421.443 72.4095 422.678 73.5351 423.897C74.1448 424.554 74.7545 425.226 75.3798 425.883C76.4898 427.071 77.6154 428.243 78.7566 429.4C79.2882 429.947 79.8197 430.51 80.3669 431.057C81.9615 432.667 83.5874 434.246 85.2289 435.809C85.7917 436.341 86.3545 436.857 86.9329 437.388C88.121 438.498 89.3092 439.593 90.5129 440.671C91.1852 441.281 91.873 441.875 92.5453 442.485C93.7803 443.563 95.031 444.642 96.2817 445.689C96.8601 446.174 97.4229 446.659 98.0013 447.143C99.7523 448.597 101.519 450.004 103.301 451.411C103.926 451.896 104.567 452.38 105.193 452.865C106.475 453.85 107.757 454.819 109.054 455.773C109.789 456.304 110.508 456.851 111.258 457.367C112.619 458.352 113.994 459.306 115.37 460.259C115.964 460.666 116.543 461.088 117.137 461.479C119.028 462.76 120.935 464.011 122.858 465.23C123.531 465.668 124.218 466.09 124.906 466.512C126.282 467.372 127.642 468.216 129.034 469.045C129.8 469.498 130.566 469.967 131.347 470.421C132.848 471.296 134.365 472.156 135.897 473C136.475 473.313 137.038 473.657 137.616 473.969C139.633 475.064 141.681 476.142 143.729 477.19C144.448 477.549 145.167 477.909 145.871 478.253C147.34 478.987 148.825 479.707 150.311 480.41C151.108 480.785 151.89 481.16 152.687 481.52C154.36 482.286 156.048 483.036 157.736 483.771C158.268 484.006 158.784 484.24 159.315 484.459C161.473 485.366 163.646 486.257 165.835 487.101C166.554 487.382 167.288 487.648 168.023 487.929C169.602 488.523 171.197 489.118 172.807 489.696C173.604 489.977 174.386 490.259 175.183 490.54C177.059 491.181 178.935 491.806 180.827 492.4C181.265 492.541 181.702 492.682 182.14 492.823C184.423 493.542 186.721 494.214 189.034 494.855C189.769 495.058 190.504 495.246 191.239 495.449C192.943 495.902 194.647 496.356 196.351 496.778C197.133 496.965 197.914 497.168 198.696 497.356C200.791 497.856 202.886 498.325 204.98 498.763C205.293 498.826 205.606 498.904 205.934 498.966C208.326 499.451 210.749 499.904 213.172 500.326C213.907 500.451 214.642 500.576 215.377 500.686C217.19 500.983 218.988 501.264 220.817 501.514C221.583 501.624 222.334 501.733 223.1 501.827C225.429 502.14 227.758 502.421 230.119 502.671C230.275 502.687 230.447 502.702 230.604 502.734C233.105 502.984 235.622 503.187 238.139 503.375C238.874 503.422 239.624 503.469 240.374 503.515C242.266 503.64 244.158 503.734 246.065 503.812C246.815 503.844 247.566 503.875 248.332 503.891C250.896 503.969 253.46 504.016 256.039 504.016C258.619 504.016 261.182 503.969 263.746 503.891C264.497 503.875 265.247 503.828 266.013 503.812C267.92 503.734 269.812 503.64 271.704 503.515C272.439 503.469 273.189 503.422 273.924 503.375C276.441 503.187 278.958 502.984 281.459 502.734C281.615 502.718 281.772 502.702 281.944 502.671C284.289 502.421 286.634 502.14 288.963 501.827C289.729 501.733 290.479 501.624 291.245 501.514C293.075 501.249 294.888 500.983 296.686 500.67C297.421 500.545 298.155 500.436 298.89 500.311C301.313 499.889 303.737 499.435 306.128 498.951C306.441 498.888 306.738 498.81 307.035 498.747C309.161 498.31 311.272 497.825 313.367 497.34C314.148 497.153 314.914 496.965 315.68 496.778C317.4 496.356 319.12 495.902 320.839 495.449C321.559 495.261 322.278 495.058 322.997 494.87C325.311 494.214 327.624 493.542 329.922 492.838C330.329 492.713 330.735 492.572 331.142 492.447C333.065 491.838 334.988 491.197 336.879 490.54C337.645 490.274 338.427 489.993 339.193 489.727C340.819 489.149 342.445 488.539 344.071 487.929C344.774 487.664 345.478 487.398 346.165 487.132C348.37 486.272 350.558 485.381 352.732 484.459C353.216 484.256 353.685 484.037 354.154 483.834C355.905 483.083 357.64 482.302 359.376 481.504C360.126 481.16 360.892 480.801 361.643 480.441C363.19 479.707 364.722 478.972 366.239 478.206C366.911 477.877 367.583 477.549 368.24 477.205C370.319 476.142 372.398 475.064 374.446 473.938C374.947 473.657 375.447 473.375 375.947 473.094C376.01 473.063 376.072 473.016 376.135 472.984L255.992 380L376.15 473C377.995 471.968 379.793 470.874 381.606 469.811C380.215 470.639 378.824 471.468 377.401 472.265C378.511 471.64 379.621 471.015 380.731 470.374C381.45 469.952 382.169 469.529 382.888 469.107C383.404 468.81 383.904 468.482 384.405 468.185C385.155 467.732 385.89 467.278 386.625 466.825C386.828 466.7 387.047 466.575 387.25 466.45C387.86 466.059 388.485 465.684 389.095 465.309C391.018 464.089 392.925 462.839 394.801 461.557C393.269 462.604 391.69 463.573 390.127 464.574C397.974 459.509 405.541 454.053 412.748 448.159C413.186 447.8 413.639 447.456 414.077 447.096C414.546 446.721 414.984 446.33 415.453 445.94C416.844 444.767 418.22 443.595 419.58 442.391C420.174 441.875 420.768 441.343 421.362 440.812C422.707 439.608 424.035 438.389 425.349 437.169C425.802 436.747 426.255 436.341 426.693 435.919C427.381 435.262 428.037 434.606 428.725 433.933C428.303 434.356 427.85 434.746 427.412 435.153C427.912 434.668 428.428 434.215 428.913 433.746C429.851 432.823 430.805 431.917 431.743 430.979C432.165 430.557 432.571 430.135 432.978 429.713C434.26 428.399 435.526 427.086 436.777 425.757C437.292 425.21 437.824 424.648 438.34 424.085C439.622 422.709 440.872 421.302 442.123 419.895C442.467 419.504 442.827 419.098 443.186 418.707C443.405 418.457 443.624 418.191 443.843 417.941H443.858C444.515 417.175 445.172 416.393 445.813 415.627C446.266 415.08 446.735 414.549 447.188 414.001C447.595 413.517 447.97 413.017 448.361 412.532C448.064 412.907 447.767 413.282 447.47 413.658C447.579 413.533 447.689 413.407 447.798 413.267C448.173 412.813 448.533 412.36 448.892 411.907C449.314 411.375 449.737 410.844 450.159 410.312C450.565 409.796 450.987 409.28 451.394 408.764C451.894 408.124 452.394 407.467 452.895 406.81C452.644 407.139 452.394 407.451 452.144 407.78C452.207 407.701 452.269 407.623 452.332 407.53C452.785 406.951 453.223 406.373 453.661 405.794C454.208 405.075 454.724 404.34 455.271 403.621C455.646 403.121 456.021 402.621 456.396 402.121C456.772 401.605 457.147 401.104 457.522 400.589C458.773 398.853 459.992 397.087 461.211 395.305C461.649 394.648 462.103 394.007 462.54 393.35C462.228 393.835 461.899 394.304 461.571 394.789C461.743 394.539 461.915 394.304 462.071 394.054C462.4 393.569 462.712 393.069 463.041 392.584C463.713 391.568 464.354 390.552 465.01 389.52C465.432 388.864 465.87 388.207 466.292 387.551C466.542 387.16 466.777 386.753 467.027 386.363C467.09 386.253 467.152 386.159 467.215 386.05C468.278 384.33 469.31 382.611 470.326 380.875C470.388 380.766 470.466 380.641 470.529 380.532C470.623 380.375 470.732 380.203 470.826 380.031C473.452 375.498 475.922 370.87 478.252 366.149C478.346 365.962 478.439 365.758 478.533 365.571C479.565 363.46 480.581 361.35 481.566 359.208C481.785 358.708 482.004 358.208 482.238 357.708C483.067 355.863 483.88 354.018 484.677 352.142C484.959 351.47 485.24 350.782 485.521 350.094C486.225 348.406 486.897 346.702 487.569 344.982C487.882 344.169 488.179 343.357 488.492 342.528C489.086 340.933 489.68 339.323 490.243 337.713C490.555 336.806 490.868 335.884 491.181 334.962C491.697 333.43 492.197 331.898 492.681 330.35C492.994 329.349 493.307 328.349 493.604 327.348C494.042 325.863 494.479 324.394 494.901 322.893C495.198 321.83 495.495 320.751 495.777 319.688C496.152 318.25 496.527 316.796 496.887 315.358C497.168 314.232 497.434 313.091 497.7 311.966C498.028 310.559 498.325 309.152 498.622 307.745C498.872 306.557 499.122 305.369 499.357 304.165C499.623 302.789 499.873 301.414 500.123 300.022C500.342 298.787 500.576 297.537 500.78 296.286C500.998 294.942 501.202 293.581 501.389 292.237C501.577 290.94 501.78 289.658 501.952 288.36C502.124 287.047 502.265 285.718 502.421 284.405C502.577 283.061 502.734 281.716 502.874 280.372C502.999 279.09 503.093 277.792 503.203 276.51C503.312 275.119 503.453 273.728 503.531 272.321C503.609 271.086 503.656 269.851 503.719 268.616C503.922 264.442 504.063 260.268 504.063 256.047C504.063 255.891 504.063 255.766 504.063 255.64C504.063 255.766 504.063 255.906 504.063 256.031L504 255.969ZM263.653 23.6485C262.339 23.6954 261.026 23.7267 259.729 23.8048C261.042 23.7423 262.339 23.6954 263.653 23.6485ZM110.555 88.2436C110.68 88.1185 110.821 87.9778 110.946 87.8528C110.805 87.9778 110.68 88.1029 110.555 88.2436ZM251.365 24.3833C250.27 24.4771 249.192 24.5709 248.097 24.6803C249.176 24.5709 250.27 24.4771 251.365 24.3833ZM239.718 25.6808C238.702 25.8215 237.67 25.9622 236.654 26.1029C237.67 25.9465 238.702 25.8215 239.718 25.6808ZM233.996 26.5406C232.995 26.6969 231.979 26.8689 230.979 27.0408C231.979 26.8689 232.98 26.7126 233.996 26.5406ZM228.337 27.5255C227.352 27.7131 226.351 27.9007 225.366 28.0883C226.351 27.885 227.336 27.7131 228.337 27.5255ZM222.709 28.651C221.739 28.8543 220.786 29.0575 219.817 29.2763C220.77 29.0575 221.739 28.8543 222.709 28.651ZM217.128 29.9173C216.19 30.1362 215.236 30.3707 214.314 30.6051C215.252 30.3707 216.19 30.1362 217.128 29.9173ZM211.625 31.3086C210.702 31.5588 209.764 31.8089 208.842 32.059C209.764 31.7932 210.702 31.5588 211.625 31.3086ZM200.775 34.4821C199.884 34.7635 198.977 35.0605 198.086 35.3575C198.977 35.0605 199.868 34.7791 200.775 34.4821ZM195.429 36.2642C194.553 36.5769 193.662 36.8739 192.786 37.1866C193.662 36.8739 194.537 36.5613 195.429 36.2642ZM190.144 38.1715C189.285 38.4997 188.409 38.8124 187.549 39.1563C188.409 38.828 189.269 38.4997 190.144 38.1715ZM179.764 42.3454C178.935 42.705 178.122 43.0645 177.294 43.4241C178.107 43.0645 178.935 42.705 179.764 42.3454ZM169.633 47.004C168.852 47.3792 168.086 47.77 167.32 48.1609C168.086 47.77 168.867 47.3949 169.633 47.004ZM164.678 49.5053C163.927 49.8961 163.161 50.3026 162.411 50.6934C163.161 50.2869 163.912 49.8961 164.678 49.5053ZM159.784 52.116C159.05 52.5224 158.331 52.9289 157.596 53.3354C158.315 52.9289 159.05 52.5224 159.784 52.116ZM154.954 54.8361C154.25 55.2426 153.547 55.6646 152.843 56.0711C153.547 55.649 154.25 55.2426 154.954 54.8361ZM150.201 57.6657C149.513 58.0877 148.841 58.5098 148.169 58.9319C148.841 58.5098 149.529 58.0877 150.201 57.6657ZM140.931 63.653C140.305 64.0751 139.696 64.5129 139.086 64.9349C139.696 64.5129 140.321 64.0751 140.931 63.653ZM131.957 70.0782C131.41 70.4846 130.878 70.8911 130.347 71.3132C130.878 70.9067 131.41 70.4846 131.957 70.0782ZM123.312 76.9097C122.874 77.2693 122.452 77.6288 122.014 78.004C122.452 77.6445 122.874 77.2693 123.312 76.9097ZM119.122 80.4584C118.747 80.7867 118.387 81.115 118.028 81.4276C118.387 81.0993 118.762 80.771 119.122 80.4584ZM115.01 84.1165C114.729 84.3666 114.463 84.6167 114.198 84.8669C114.463 84.6167 114.745 84.3666 115.01 84.1165ZM39.3449 244.635C39.3136 245.198 39.298 245.776 39.2824 246.339C39.2824 246.308 39.2824 246.276 39.2824 246.245C39.298 245.714 39.3136 245.182 39.3449 244.651V244.635ZM76.5054 129.436C76.5054 129.436 76.4585 129.514 76.4273 129.546C76.4585 129.514 76.4742 129.467 76.5054 129.436ZM70.9556 138.409C70.8618 138.581 70.768 138.738 70.6586 138.894C70.7524 138.738 70.8462 138.566 70.9556 138.409ZM65.7028 147.836C65.5777 148.055 65.4683 148.289 65.3432 148.508C65.4526 148.289 65.5777 148.055 65.7028 147.836ZM58.5896 162.609C58.4645 162.891 58.3395 163.172 58.23 163.438C58.3551 163.156 58.4802 162.875 58.5896 162.609ZM56.4322 167.674C56.3071 167.956 56.1977 168.253 56.0726 168.534C56.1821 168.253 56.3071 167.956 56.4322 167.674ZM54.3842 172.817C54.2748 173.114 54.1654 173.396 54.0403 173.693C54.1497 173.396 54.2592 173.114 54.3842 172.817ZM50.6635 183.276C50.5697 183.573 50.4602 183.87 50.3664 184.167C50.4602 183.87 50.554 183.573 50.6635 183.276ZM43.519 210.43C43.4721 210.696 43.4252 210.946 43.3627 211.212C43.4096 210.946 43.4565 210.696 43.519 210.43ZM40.7988 227.329C40.7676 227.517 40.7519 227.704 40.7363 227.892C40.7519 227.704 40.7832 227.517 40.7988 227.329ZM40.1578 233.051C40.1578 233.207 40.1266 233.348 40.111 233.504C40.111 233.348 40.1422 233.207 40.1578 233.051ZM39.6576 238.819C39.6576 238.913 39.6576 238.991 39.6419 239.085C39.6419 238.991 39.6419 238.913 39.6576 238.819ZM39.1104 249.653C39.1104 250.2 39.1104 250.763 39.0791 251.326C39.0791 250.779 39.0791 250.231 39.1104 249.684C39.1104 249.684 39.1104 249.669 39.1104 249.653ZM132.004 287.016L63.8268 356.816C47.9902 326.692 39.0166 292.393 39.0166 256C39.0166 256 39.0166 255.937 39.0166 255.906C39.0166 254.843 39.0479 253.78 39.0635 252.733C40.8301 134.392 137.257 39 256.008 39C363.831 39 453.27 117.665 470.123 220.717C471.045 226.376 471.748 232.113 472.233 237.897C472.233 237.96 472.233 238.038 472.249 238.1C472.249 238.163 472.249 238.225 472.249 238.272C472.467 240.961 472.624 243.681 472.749 246.401C472.749 246.777 472.78 247.152 472.796 247.527C472.796 247.636 472.796 247.746 472.796 247.855C472.89 250.544 472.968 253.249 472.968 255.969C472.968 292.378 463.994 326.676 448.158 356.801L379.98 287L338.646 194H305.581L255.977 101L131.988 287L132.004 287.016ZM466.245 377.374L465.855 378.046C465.776 378.187 465.683 378.312 465.604 378.452C464.62 380.141 463.603 381.813 462.572 383.486L462.228 384.049C462.087 384.283 461.946 384.518 461.806 384.752C460.727 386.472 459.523 388.317 458.116 390.443C457.694 391.084 457.256 391.725 456.819 392.366C455.505 394.288 454.333 395.977 453.207 397.54C452.957 397.884 452.707 398.228 452.457 398.556L452.097 399.041C450.972 400.589 449.83 402.105 448.658 403.621C448.173 404.262 447.673 404.903 447.188 405.529C445.719 407.404 444.374 409.077 443.077 410.656C442.811 410.984 442.53 411.313 442.248 411.641L441.732 412.251L441.357 412.704L439.794 414.517C421.675 435.512 400.429 453.068 376.572 466.747L278.958 391.193L378.699 416.128L390.173 418.988L384.608 408.561L302.22 254.077L272.782 143.709L334.003 258.501L343.883 277.026V218.762L375.165 289.157L375.541 290.017L376.197 290.689L444.374 360.49L449.424 365.649L452.785 359.255C469.403 327.646 478.189 291.94 478.189 255.984C478.189 253.483 478.127 250.763 478.017 247.668V247.386L477.955 246.198C477.83 243.228 477.658 240.508 477.439 237.866V237.631L477.408 237.491C476.923 231.597 476.188 225.672 475.25 219.888C466.84 168.456 440.31 121.354 400.538 87.2431C360.329 52.7569 308.989 33.763 255.945 33.763C233.652 33.763 211.844 37.0303 191.082 43.3303C216.424 33.763 243.564 28.7761 271.454 28.7761C326.124 28.7761 378.949 48.4735 420.205 84.2259C461.055 119.619 488.007 168.393 496.09 221.529L496.762 225.985H496.824C497.45 231.175 497.934 236.584 498.247 242.118C498.309 243.29 498.388 244.447 498.435 245.62C498.481 246.605 498.513 247.59 498.544 248.574C498.638 251.451 498.685 253.796 498.685 256.016C498.685 298.678 487.444 340.636 466.199 377.374H466.245ZM470.795 380C472.077 377.796 473.312 375.56 474.531 373.293C473.312 375.545 472.077 377.78 470.795 380ZM482.77 356.457C483.364 355.128 483.942 353.799 484.521 352.471C483.958 353.815 483.364 355.128 482.77 356.457ZM485.85 349.219C486.381 347.921 486.913 346.608 487.413 345.295C486.913 346.608 486.381 347.906 485.85 349.219ZM488.679 341.903C489.164 340.605 489.633 339.323 490.086 338.01C489.633 339.308 489.148 340.605 488.679 341.903ZM491.274 334.508C491.697 333.226 492.134 331.929 492.541 330.647C492.134 331.945 491.712 333.226 491.274 334.508ZM495.777 319.454C496.121 318.172 496.434 316.89 496.762 315.608C496.449 316.89 496.121 318.172 495.777 319.454ZM497.669 311.794C497.966 310.512 498.247 309.23 498.513 307.932C498.231 309.214 497.966 310.512 497.669 311.794ZM499.326 304.055C499.576 302.774 499.81 301.492 500.045 300.194C499.81 301.476 499.576 302.774 499.326 304.055ZM500.733 296.223C500.936 294.941 501.123 293.66 501.311 292.378C501.123 293.66 500.936 294.957 500.733 296.223ZM501.89 288.313C502.062 287.047 502.187 285.765 502.343 284.483C502.202 285.765 502.062 287.047 501.89 288.313ZM502.796 280.325C502.921 279.074 503.015 277.808 503.109 276.542C503 277.808 502.921 279.059 502.796 280.325Z" fill="#A0E0DE"/>
</g>
<defs>
<clipPath id="clip0_176_243765">
<rect width="496" height="496" fill="white" transform="translate(8 8)"/>
</clipPath>
</defs>
</svg>
